<svg xmlns="http://www.w3.org/2000/svg" width="32" height="32" viewBox="0 0 32 32" image-rendering="pixelated">
  <!-- 8-bit style target -->
  <rect x="10" y="4" width="12" height="2" fill="#e74c3c"/>
  <rect x="10" y="26" width="12" height="2" fill="#e74c3c"/>
  <rect x="4" y="10" width="2" height="12" fill="#e74c3c"/>
  <rect x="26" y="10" width="2" height="12" fill="#e74c3c"/>
  <rect x="6" y="6" width="2" height="4" fill="#e74c3c"/>
  <rect x="24" y="6" width="2" height="4" fill="#e74c3c"/>
  <rect x="6" y="22" width="2" height="4" fill="#e74c3c"/>
  <rect x="24" y="22" width="2" height="4" fill="#e74c3c"/>
  <rect x="10" y="6" width="12" height="2" fill="#e74c3c"/>
  <rect x="10" y="24" width="12" height="2" fill="#e74c3c"/>
  <rect x="6" y="10" width="4" height="12" fill="#e74c3c"/>
  <rect x="22" y="10" width="4" height="12" fill="#e74c3c"/>
  <rect x="8" y="8" width="16" height="16" fill="#fff"/>
  <rect x="12" y="8" width="8" height="2" fill="#fff"/>
  <rect x="12" y="22" width="8" height="2" fill="#fff"/>
  <rect x="8" y="12" width="2" height="8" fill="#fff"/>
  <rect x="22" y="12" width="2" height="8" fill="#fff"/>
  <rect x="12" y="12" width="8" height="8" fill="#e74c3c"/>
</svg> 